<svg width="89" height="120" viewBox="0 0 89 120" fill="none" xmlns="http://www.w3.org/2000/svg">
<path d="M60.0654 114.7C60.0654 117.756 57.5903 120.259 54.5562 119.979C48.5571 119.424 42.6646 117.967 37.0794 115.648C29.7919 112.621 23.1703 108.184 17.5928 102.591C12.0152 96.9977 7.59078 90.3577 4.57221 83.05C1.55364 75.7422 0 67.9098 0 60C0 52.0902 1.55364 44.2578 4.57221 36.95C7.59078 29.6423 12.0152 23.0023 17.5928 17.4092C23.1703 11.8161 29.7919 7.37945 37.0794 4.35249C42.6646 2.03258 48.5571 0.575557 54.5562 0.0214544C57.5903 -0.258784 60.0654 2.24443 60.0654 5.29979V31.1851C44.1954 31.1851 31.3303 44.0861 31.3303 60.0002C31.3303 75.9141 44.1951 88.8149 60.0648 88.8153L60.0654 31.1851C75.9354 31.1851 88.8 44.0861 88.8 60.0003C88.8 75.9142 75.9345 88.815 60.0648 88.8153L60.0654 114.7Z" fill="#251B9F"/>
<path d="M60.001 88.7999L60.0004 31.1999C75.9062 31.1999 88.8 44.0945 88.8 60.0003C88.8 75.9059 75.9065 88.7995 60.001 88.7999Z" fill="#251B9F"/>
<path d="M60.07 90.8214V114.701C60.07 117.761 57.6 120.261 54.56 119.981C48.56 119.431 42.67 117.971 37.08 115.651C29.79 112.621 23.17 108.191 17.59 102.591C12.01 97.0014 7.59 90.3614 4.57 83.0514C1.55 75.7414 0 67.9114 0 60.0014C0 52.0914 1.55 44.2614 4.57 36.9514C7.59 29.6414 12.01 23.0014 17.59 17.4114C23.17 11.8214 29.79 7.38144 37.08 4.35144C42.67 2.03144 48.57 0.581444 54.57 0.0214435C57.6 -0.258556 60.08 2.24144 60.08 5.30144V31.1914C44.21 31.1914 31.34 44.0914 31.34 60.0114C31.34 75.9314 44.2 88.8214 60.07 88.8314" fill="#251B9F"/>
<path d="M60.0004 89.0532L59.9998 31.0769C76.0095 31.0769 88.9879 44.0553 88.9879 60.0651C88.9879 76.0746 76.0098 89.0529 60.0004 89.0532Z" fill="#FF491B"/>
</svg>
